<svg width="40" height="40" viewBox="0 0 40 40" fill="none" xmlns="http://www.w3.org/2000/svg">
<path d="M19.98 0C8.94 0 0 8.96 0 20C0 31.04 8.94 40 19.98 40C31.04 40 40 31.04 40 20C40 8.96 31.04 0 19.98 0ZM33.84 12H27.94C27.314 9.52292 26.3871 7.13179 25.18 4.88C28.8282 6.136 31.9023 8.66345 33.84 12ZM20 4.08C21.66 6.48 22.96 9.14 23.82 12H16.18C17.04 9.14 18.34 6.48 20 4.08ZM4.52 24C4.2 22.72 4 21.38 4 20C4 18.62 4.2 17.28 4.52 16H11.28C11.12 17.32 11 18.64 11 20C11 21.36 11.12 22.68 11.28 24H4.52ZM6.16 28H12.06C12.7 30.5 13.62 32.9 14.82 35.12C11.1679 33.8709 8.09167 31.3416 6.16 28ZM12.06 12H6.16C8.09167 8.65836 11.1679 6.12914 14.82 4.88C13.6129 7.13179 12.686 9.52292 12.06 12ZM20 35.92C18.34 33.52 17.04 30.86 16.18 28H23.82C22.96 30.86 21.66 33.52 20 35.92ZM24.68 24H15.32C15.14 22.68 15 21.36 15 20C15 18.64 15.14 17.3 15.32 16H24.68C24.86 17.3 25 18.64 25 20C25 21.36 24.86 22.68 24.68 24ZM25.18 35.12C26.38 32.9 27.3 30.5 27.94 28H33.84C31.9023 31.3366 28.8282 33.864 25.18 35.12ZM28.72 24C28.88 22.68 29 21.36 29 20C29 18.64 28.88 17.32 28.72 16H35.48C35.8 17.28 36 18.62 36 20C36 21.38 35.8 22.72 35.48 24H28.72Z" fill="#646D71"/>
</svg>
